<?xml version="1.0" encoding="UTF-8"?>
<svg width="138px" height="138px" viewBox="0 0 138 138" version="1.1" xmlns="http://www.w3.org/2000/svg" xmlns:xlink="http://www.w3.org/1999/xlink">
    <!-- Generator: Sketch 54.1 (76490) - https://sketchapp.com -->
    <title>NoPicture</title>
    <desc>Created with Sketch.</desc>
    <defs>
        <rect id="path-1" x="0.237476809" y="1.13686838e-13" width="79.5250464" height="80" rx="2"></rect>
    </defs>
    <g id="页面1" stroke="none" stroke-width="1" fill="none" fill-rule="evenodd">
        <g id="空状态" transform="translate(-851.000000, -859.000000)">
            <g id="NoPicture" transform="translate(849.000000, 859.000000)">
                <rect id="矩形" x="0" y="0" width="138" height="138"></rect>
                <g id="编组-4" transform="translate(12.000000, 19.000000)">
                    <path d="M70.6229831,19.3216216 L36.0995453,19.2679498 C36.0985089,19.2679482 36.0974725,19.2679474 36.0964361,19.2679474 C34.9918666,19.2679474 34.0964361,20.1633779 34.0964361,21.2679474 L34.0964361,80.9982758 L19.8721026,84.8808289 C18.8065146,85.1716828 17.7069012,84.5436366 17.4160474,83.4780486 C17.4144238,83.4721004 17.4128278,83.4661448 17.4112593,83.4601819 L0.908184648,20.7200477 C0.629034164,19.6587946 1.25712707,18.5708128 2.31575304,18.2818592 L63.8447443,1.4874288 C64.9103323,1.19657495 66.0099457,1.82462108 66.3007996,2.8902091 C66.3024231,2.89615727 66.3040192,2.90211292 66.3055876,2.90807585 L70.6229831,19.3216216 Z" id="形状结合" fill-opacity="0.2" fill="#56668D"></path>
                    <path d="M33.9647767,80.5159213 L30.1059411,81.5691963 L30.3692599,82.5339052 L34.2280954,81.4806302 L33.9647767,80.5159213 Z M28.1765234,82.0958338 L24.3176878,83.1491087 L24.5810065,84.1138176 L28.4398421,83.0605427 L28.1765234,82.0958338 Z M22.38827,83.6757462 L19.8627014,84.3651039 C19.508064,84.4619027 19.1408281,84.4355655 18.8091956,84.2960074 L18.4213194,85.2177189 C18.9572939,85.4432686 19.5536628,85.4860386 20.1260202,85.3298128 L22.6515887,84.6404551 L22.38827,83.6757462 Z M17.834236,83.1027009 L16.8166946,79.2342891 L15.8495916,79.4886745 L16.8671331,83.3570862 L17.834236,83.1027009 Z M16.3079239,77.3000833 L15.2903824,73.4316715 L14.3232795,73.6860569 L15.3408209,77.5544686 L16.3079239,77.3000833 Z M14.7816117,71.4974656 L13.7640702,67.6290539 L12.7969673,67.8834393 L13.8145087,71.751851 L14.7816117,71.4974656 Z M13.2552995,65.694848 L12.237758,61.8264363 L11.2706551,62.0808217 L12.2881965,65.9492334 L13.2552995,65.694848 Z M11.7289873,59.8922304 L10.7114458,56.0238187 L9.74434289,56.2782041 L10.7618844,60.1466158 L11.7289873,59.8922304 Z M10.2026751,54.0896128 L9.18513364,50.2212011 L8.2180307,50.4755864 L9.23557216,54.3439982 L10.2026751,54.0896128 Z M8.67636291,48.2869952 L7.65882145,44.4185835 L6.69171851,44.6729688 L7.70925997,48.5413806 L8.67636291,48.2869952 Z M7.15005072,42.4843776 L6.13250926,38.6159659 L5.16540633,38.8703512 L6.18294779,42.738763 L7.15005072,42.4843776 Z M5.62373853,36.68176 L4.60619707,32.8133483 L3.63909414,33.0677336 L4.6566356,36.9361454 L5.62373853,36.68176 Z M4.09742634,30.8791424 L3.07988488,27.0107306 L2.11278195,27.265116 L3.13032341,31.1335278 L4.09742634,30.8791424 Z M2.57111415,25.0765248 L1.5535727,21.208113 L0.586469761,21.4624984 L1.60401122,25.3309101 L2.57111415,25.0765248 Z M1.54633357,19.5811378 C1.75329755,19.1634051 2.12417131,18.8524428 2.57956494,18.7281424 L4.74911332,18.1359609 L4.48579458,17.171252 L2.3162462,17.7634335 C1.58196493,17.9638567 0.982636656,18.4663687 0.650280105,19.1371916 L1.54633357,19.5811378 Z M6.6785311,17.6093235 L10.5373667,16.5560485 L10.2740479,15.5913396 L6.41521236,16.6446146 L6.6785311,17.6093235 Z M12.4667844,16.029411 L16.32562,14.9761361 L16.0623013,14.0114272 L12.2034657,15.0647021 L12.4667844,16.029411 Z M18.2550378,14.4494986 L22.1138733,13.3962237 L21.8505546,12.4315148 L17.991719,13.4847897 L18.2550378,14.4494986 Z M24.0432911,12.8695862 L27.9021267,11.8163112 L27.6388079,10.8516023 L23.7799724,11.9048773 L24.0432911,12.8695862 Z M29.8315445,11.2896738 L33.69038,10.2363988 L33.4270613,9.27168991 L29.5682257,10.3249649 L29.8315445,11.2896738 Z M35.6197978,9.70976133 L39.4786334,8.65648638 L39.2153146,7.69177749 L35.3564791,8.74505244 L35.6197978,9.70976133 Z M41.4080511,8.1298489 L45.2668867,7.07657395 L45.003568,6.11186506 L41.1447324,7.16514001 L41.4080511,8.1298489 Z M47.1963045,6.54993647 L51.05514,5.49666152 L50.7918213,4.53195263 L46.9329857,5.58522758 L47.1963045,6.54993647 Z M52.9845578,4.97002405 L56.8433934,3.91674909 L56.5800746,2.9520402 L52.7212391,4.00531516 L52.9845578,4.97002405 Z M58.7728112,3.39011162 L62.6316467,2.33683667 L62.368328,1.37212778 L58.5094924,2.42540273 L58.7728112,3.39011162 Z M64.4115356,1.9507189 C65.0908083,2.00591108 65.6724908,2.48400043 65.8544399,3.15858489 C65.8557783,3.16356773 65.8557783,3.16356773 65.857096,3.16855621 L66.2286194,4.57203795 L67.1953222,4.31613629 L66.8239989,2.91341269 C66.8220845,2.90616642 66.8220845,2.90616642 66.8199369,2.8981709 C66.5274193,1.81364816 65.5899998,1.04317582 64.4925206,0.95400358 L64.4115356,1.9507189 Z M66.7404227,6.50544358 L67.7640293,10.3722549 L68.7307321,10.1163532 L67.7071255,6.24954192 L66.7404227,6.50544358 Z M68.2758327,12.3056605 L69.2994393,16.1724718 L70.2661421,15.9165701 L69.2425355,12.0497588 L68.2758327,12.3056605 Z M69.8112426,18.1058774 L69.9801401,18.7439103 L70.9468429,18.4880086 L70.7779454,17.8499757 L69.8112426,18.1058774 Z" id="路径" fill="#55658C" fill-rule="nonzero"></path>
                    <g id="编组-3" transform="translate(34.029861, 18.372508)">
                        <g id="路径-6-+-椭圆形-蒙版">
                            <mask id="mask-2" fill="white">
                                <use xlink:href="#path-1"></use>
                            </mask>
                            <use id="蒙版" fill-opacity="0.5" fill="#56668D" xlink:href="#path-1"></use>
                            <path d="M3,0 L76.9145832,0 C78.5714375,-2.22044605e-16 79.9145832,1.34314575 79.9145832,3 L79.9145832,77.3799185 C79.9145832,79.0367728 78.5714375,80.3799185 76.9145832,80.3799185 L3,80.3799185 C1.34314575,80.3799185 2.22044605e-16,79.0367728 0,77.3799185 L0,3 C-2.22044605e-16,1.34314575 1.34314575,5.55111512e-16 3,0 Z M3,1 C1.8954305,1 1,1.8954305 1,3 L1,77.3799185 C1,78.484488 1.8954305,79.3799185 3,79.3799185 L76.9145832,79.3799185 C78.0191527,79.3799185 78.9145832,78.484488 78.9145832,77.3799185 L78.9145832,3 C78.9145832,1.8954305 78.0191527,1 76.9145832,1 L3,1 Z" id="蒙版" fill="#55658C" fill-rule="nonzero" mask="url(#mask-2)"></path>
                            <path d="M0.353939321,61.7986242 L17.9946418,43.9661205 C18.7337471,43.2189791 19.9250338,43.171333 20.7214474,43.8570605 L36.2122193,57.1949131 C37.0492656,57.9156261 38.3120791,57.8213193 39.0327921,56.984273 C39.0426895,56.972778 39.0524558,56.9611708 39.0620891,56.9494536 L63.1280152,27.6776169 C63.8250944,26.8297464 65.0752567,26.7021174 65.9292878,27.3916351 L79.5699831,38.4047009 L79.5699831,78 C79.5699831,79.1045695 78.6745526,80 77.5699831,80 L2.21541655,80 C1.11084705,80 0.215416546,79.1045695 0.215416546,78 C0.215416546,77.9942971 0.215440939,77.9885942 0.215489723,77.9828915 L0.353939321,61.7986242 Z" id="路径-6" fill-opacity="0.5" fill="#56668D" mask="url(#mask-2)"></path>
                            <path d="M0.329044362,61.7986242 L17.9952125,43.900786 C18.7389218,43.1856999 19.9045343,43.1536825 20.686377,43.8268641 L36.2122193,57.1949131 C37.0492656,57.9156261 38.3120791,57.8213193 39.0327921,56.984273 C39.0426895,56.972778 39.0524558,56.9611708 39.0620891,56.9494536 L63.1663913,27.6309393 C63.8481963,26.8016471 65.063126,26.658588 65.9189118,27.3068274 L79.7625232,38.4047009 L79.7625232,78 C79.7625232,79.1045695 78.8670927,80 77.7625232,80 L2.19052159,80 C1.08595209,80 0.190521587,79.1045695 0.190521587,78 C0.190521587,77.9942971 0.19054598,77.9885942 0.190594764,77.9828915 L0.329044362,61.7986242 Z M1,62.1434133 L1,77.3799185 C1,78.484488 1.8954305,79.3799185 3,79.3799185 L76.9145832,79.3799185 C78.0191527,79.3799185 78.9145832,78.484488 78.9145832,77.3799185 L78.9145832,38.9017238 L65.3151033,28.1039569 C64.8872104,27.7798371 64.2797455,27.8513667 63.938843,28.2660128 L39.8345409,57.5845271 C39.8127661,57.6108083 39.8127661,57.6108083 39.7905953,57.6367562 C38.7095258,58.8923256 36.8153056,59.0337858 35.5597362,57.9527163 L20.0338939,44.5846674 C19.6429725,44.2480766 19.0601663,44.2640853 18.6883116,44.6216283 L1,62.1434133 Z" id="路径-6" fill="#56668D" fill-rule="nonzero" mask="url(#mask-2)"></path>
                        </g>
                        <ellipse id="椭圆形" fill="#47526F" cx="18.3143518" cy="15.9295083" rx="4.94695767" ry="4.97650276"></ellipse>
                    </g>
                </g>
            </g>
        </g>
    </g>
</svg>